<?xml version="1.0" encoding="utf-8"?>
<!-- Generator: Adobe Illustrator 15.0.0, SVG Export Plug-In . SVG Version: 6.00 Build 0)  -->
<!DOCTYPE svg PUBLIC "-//W3C//DTD SVG 1.1//EN" "http://www.w3.org/Graphics/SVG/1.1/DTD/svg11.dtd">
<svg version="1.1" id="Calque_1" xmlns="http://www.w3.org/2000/svg" xmlns:xlink="http://www.w3.org/1999/xlink" x="0px" y="0px"
	 width="349.482px" height="310.484px" viewBox="0 0 349.482 310.484" enable-background="new 0 0 349.482 310.484"
	 xml:space="preserve">
<g>
	<path d="M95.221,43.674c50.875-20.958,91.5-26.083,140.5-29.833c-1.167,4.5-1.833,6.833-1.833,6.833h5.583l-9.334,30.917
		c0,0-17.5,3.25-21.999,4.083c-1.896,9.106-28.915,93.991-32.042,105.667c-4.5,15.5-12.25,23.5-19.291,29.5
		c-6.334,6.334-48.261,35.34-48.261,35.34l-89.406,64.661l4-12l-8.822,6.67l52.988-153.17c13.5-7.333,43.347-21.808,63.501-29.667
		c-0.5,3.168-2.834,9.334-2.834,9.334s3.834-1.334,6.667-2.334c-1.833,4.167-5.333,17.667-6.334,21.167
		c5.667-1.833,15.501-10.5,18.334-18.667c1.758-7.002,11.5-35.833,12.833-42.833c-7.5,2.5-55.667,21-75.667,31.833
		c0.629-2.5,3-9.5,3-9.5l-7.666,3.834L95.221,43.674z"/>
	<path fill="#572D90" d="M96.409,44.653c0,0-13.604,43.688-14.938,48.188c7.167-4.833,72.834-31.833,82.334-33.333
		c-2,7.5-14.084,49-15.5,51.75c-1.334,5.166-7.334,18.5-28.334,24.166c0.25-1.583,7.834-27.663,8.75-30.5
		c-8.333,3-42.333,18.25-60.167,28.417L16.815,282.154c0,0,105.781-77.938,116.031-83.438c4.875-3.625,21.875-15.75,24-19.625
		c5-5.125,10.25-11,15.375-28.875c2.875-8.25,31.125-101.375,31.125-101.375s20.041-4.375,21.875-4.188
		c1-3.396,8.25-26.479,8.667-29.313C199.462,18.109,148.721,22.424,96.409,44.653z"/>
</g>
<g>
	<path d="M228.36,92.229l6.667-0.833l-1.834,6.667c0,0,31.151-2.188,37.834-2.167c-1.864,6.683-8.167,26.5-8.667,28.5
		c-4.625,11.979-7.438,13.979-12,14.354c0.5-2,5.375-18.063,5.375-18.063l-5.75,0.25l2-6.875l-30.813,1.011l-24.5,81.364
		l6.563-0.313c0,0-1.625,5.438-1.938,6.313c4.366-0.055,31.813-2.813,40.188-4.5c5.454-0.712,14.208-2.186,17.75-3.271
		c5.813-1.667,20.125-9.292,27.25-23.917c5.061-13.56,17.771-54.874,23.521-73.813l14.334,1.167l9.083-31.542l-5.5-0.938
		c0,0,0.838-2.507,1.75-5.813c-15.083-2.917-74.375-3.125-90.875-2.125C236.839,64.229,228.36,92.229,228.36,92.229z"/>
	<path fill="#572D90" d="M239.86,59l-9.813,31.563c0,0,38-2.563,44.25-1.938c-0.563,3.188-10.25,36.188-11.5,38.313
		c-1.813,3.688-4,12.688-12.313,13.25c-2.688,0.25-6.5,0.25-7.688-0.375c0.5-1.375,7.313-24.313,7.313-24.313l-28,1.063
		c0,0-23.125,77.375-23.688,78.375c11.75-0.313,48.384-5.138,51.125-6.188c10.292-1.688,24.708-10.771,31.685-24.207
		c4.441-10.147,22.126-70.308,23.69-74.814c2.917-0.25,14.334,0.917,14.334,0.917s7.083-25.25,8.5-29.667
		C314.508,58.282,259.506,57.896,239.86,59z"/>
</g>
</svg>
